<svg xmlns="http://www.w3.org/2000/svg" xmlns:xlink="http://www.w3.org/1999/xlink" width="64" height="64" viewBox="0 0 349 162" preserveAspectRatio="xMidYMid">
<g id="surface1">
<path style=" stroke:none;fill-rule:nonzero;fill:rgb(3.529412%,45.09804%,73.333335%);fill-opacity:1;" d="M 72.066406 41.050781 C 76.414062 44.285156 80.261719 47.988281 84.125 51.773438 C 85.207031 52.824219 85.207031 52.824219 86.308594 53.894531 C 88.367188 55.898438 90.414062 57.914062 92.457031 59.933594 C 93.28125 60.75 94.109375 61.5625 94.9375 62.375 C 104.957031 72.207031 104.957031 72.207031 106.253906 78.152344 C 106.246094 83.4375 105.191406 87.054688 101.617188 91.019531 C 97.390625 94.480469 93.660156 94.976562 88.238281 94.792969 C 84.285156 94.09375 81.933594 92.121094 79.128906 89.351562 C 78.425781 88.679688 77.71875 88.007812 76.996094 87.316406 C 76.324219 86.609375 75.65625 85.902344 74.964844 85.175781 C 73.996094 84.199219 73.023438 83.226562 72.050781 82.253906 C 64.96875 75.15625 64.96875 75.15625 63.4375 73.441406 C 60.71875 70.496094 59.015625 68.695312 55.128906 67.484375 C 52.574219 67.464844 52.574219 67.464844 50.859375 68.421875 C 49.433594 71.203125 49.34375 73.824219 49.976562 76.824219 C 51.574219 79.398438 53.628906 81.40625 55.789062 83.511719 C 56.394531 84.121094 56.996094 84.730469 57.617188 85.355469 C 58.898438 86.640625 60.183594 87.917969 61.480469 89.183594 C 63.4375 91.101562 65.359375 93.054688 67.277344 95.011719 C 76.257812 104.015625 84.644531 110.980469 97.921875 111.324219 C 106.042969 111.234375 112.746094 108.5625 119.242188 103.769531 C 120.777344 102.710938 120.777344 102.710938 123.273438 101.875 C 124.164062 100.371094 124.164062 100.371094 124.941406 98.535156 C 126.1875 96.445312 127.464844 94.375 128.742188 92.300781 C 133.035156 84.707031 133.265625 74.164062 131.117188 65.734375 C 127.617188 56.0625 120.730469 49.488281 111.613281 45.09375 C 106.164062 42.972656 100.894531 43.289062 95.109375 43.421875 C 93.230469 43.464844 91.351562 43.5 89.472656 43.527344 C 88.644531 43.546875 87.820312 43.566406 86.96875 43.585938 C 84.960938 43.421875 84.960938 43.421875 83.292969 41.753906 C 82.929688 39.71875 82.929688 39.71875 83.292969 37.578125 C 89.15625 32.875 97.824219 33.617188 104.949219 34.238281 C 117.050781 36.550781 127.8125 43.375 134.78125 53.601562 C 140.976562 64.148438 142.367188 75.453125 140.214844 87.390625 C 136.917969 99.429688 129.605469 108.394531 119.046875 114.753906 C 108.539062 120.4375 96.460938 121.28125 84.960938 118.109375 C 73.964844 113.886719 66.621094 106.519531 58.5 98.242188 C 56.628906 96.332031 54.742188 94.441406 52.855469 92.546875 C 51.652344 91.332031 50.449219 90.117188 49.246094 88.898438 C 48.6875 88.335938 48.128906 87.773438 47.550781 87.195312 C 43.46875 83.015625 40.464844 79.738281 40.34375 73.640625 C 40.476562 68.355469 42.050781 65.410156 45.8125 61.792969 C 49.074219 58.804688 52.480469 58.964844 56.710938 58.875 C 62.515625 59.867188 66.378906 63.722656 70.253906 67.859375 C 71.230469 68.871094 72.210938 69.882812 73.191406 70.894531 C 74.710938 72.480469 76.222656 74.070312 77.730469 75.664062 C 79.199219 77.210938 80.6875 78.746094 82.175781 80.277344 C 82.839844 80.996094 82.839844 80.996094 83.519531 81.730469 C 86.578125 84.859375 88.75 85.90625 93.289062 86.011719 C 95.433594 85.386719 95.433594 85.386719 96.621094 83.503906 C 97.238281 79.15625 97.238281 79.15625 95.625 75.226562 C 94.164062 73.550781 92.632812 72.007812 91.023438 70.472656 C 90.449219 69.898438 89.871094 69.328125 89.28125 68.734375 C 88.058594 67.527344 86.832031 66.328125 85.597656 65.132812 C 83.722656 63.320312 81.875 61.484375 80.027344 59.644531 C 78.835938 58.46875 77.640625 57.292969 76.449219 56.121094 C 75.898438 55.578125 75.351562 55.039062 74.785156 54.480469 C 66.199219 46.214844 58.128906 43.019531 46.308594 43.128906 C 37.621094 43.382812 30.996094 46.265625 24.46875 52.035156 C 17.347656 60.109375 13.542969 67.382812 13.949219 78.4375 C 14.710938 87.683594 18.109375 96.289062 24.988281 102.710938 C 33.113281 109.566406 42.863281 111.878906 53.308594 111.0625 C 54.714844 110.878906 56.121094 110.6875 57.523438 110.488281 C 60.804688 110.226562 60.804688 110.226562 62.273438 111.324219 C 63.304688 112.730469 63.304688 112.730469 63.042969 114.976562 C 62.855469 115.613281 62.664062 116.25 62.46875 116.90625 C 53.03125 121.035156 42.097656 120.601562 32.484375 117.179688 C 20.421875 111.828125 12.085938 102.96875 7.132812 90.707031 C 4.144531 80.722656 4.355469 68.605469 8.703125 59.117188 C 15.269531 47.261719 23.957031 38.851562 37.09375 34.816406 C 49.265625 32.367188 61.582031 34.214844 72.066406 41.050781 Z M 72.066406 41.050781 "/>
<path style=" stroke:none;fill-rule:nonzero;fill:rgb(1.960784%,1.960784%,1.960784%);fill-opacity:1;" d="M 274.867188 73.484375 C 279.265625 73.484375 283.664062 73.484375 288.195312 73.484375 C 293.296875 85.972656 298.375 98.460938 303.1875 111.0625 C 304.34375 108.8125 305.351562 106.558594 306.265625 104.199219 C 306.535156 103.515625 306.800781 102.828125 307.074219 102.125 C 307.359375 101.390625 307.640625 100.660156 307.933594 99.90625 C 308.226562 99.152344 308.519531 98.394531 308.820312 97.617188 C 309.757812 95.210938 310.6875 92.800781 311.621094 90.394531 C 312.257812 88.761719 312.890625 87.125 313.527344 85.492188 C 315.078125 81.488281 316.628906 77.488281 318.179688 73.484375 C 322.578125 73.484375 326.976562 73.484375 331.507812 73.484375 C 331.507812 91.121094 331.507812 108.757812 331.507812 126.929688 C 328.484375 126.929688 325.460938 126.929688 322.347656 126.929688 C 322.070312 114.25 321.796875 101.574219 321.511719 88.515625 C 316.210938 101.214844 316.210938 101.214844 310.992188 113.949219 C 310.648438 114.789062 310.308594 115.628906 309.957031 116.496094 C 309.304688 118.109375 308.652344 119.722656 308.003906 121.335938 C 307.710938 122.0625 307.417969 122.785156 307.117188 123.53125 C 306.859375 124.167969 306.601562 124.808594 306.335938 125.464844 C 305.6875 126.929688 305.6875 126.929688 304.855469 127.761719 C 303.464844 127.796875 302.078125 127.796875 300.691406 127.761719 C 297.214844 120.414062 294.265625 112.910156 291.371094 105.320312 C 290.703125 103.578125 290.035156 101.835938 289.367188 100.09375 C 288.765625 98.527344 288.167969 96.960938 287.570312 95.394531 C 286.683594 93.09375 285.777344 90.804688 284.863281 88.515625 C 284.589844 101.46875 284.3125 114.417969 284.03125 127.761719 C 281.007812 127.761719 277.984375 127.761719 274.867188 127.761719 C 274.867188 109.851562 274.867188 91.9375 274.867188 73.484375 Z M 274.867188 73.484375 "/>
<path style=" stroke:none;fill-rule:nonzero;fill:rgb(1.960784%,1.960784%,1.960784%);fill-opacity:1;" d="M 224.894531 73.484375 C 253.460938 73.484375 253.460938 73.484375 259.824219 77.554688 C 263.246094 81.089844 264.398438 83.894531 264.40625 88.828125 C 264.277344 93.699219 263.765625 96.414062 260.707031 100.207031 C 256.523438 103.546875 256.523438 103.546875 253.210938 103.546875 C 256.445312 109.632812 260.136719 115.289062 264.023438 120.96875 C 264.453125 121.609375 264.886719 122.246094 265.332031 122.90625 C 265.722656 123.480469 266.117188 124.050781 266.519531 124.644531 C 267.371094 126.09375 267.371094 126.09375 267.371094 127.761719 C 263.523438 128.578125 260.363281 128.796875 256.542969 127.761719 C 252.789062 124.476562 250.535156 119.582031 248.214844 115.238281 C 247.246094 113.453125 246.257812 111.675781 245.246094 109.914062 C 244.679688 108.820312 244.679688 108.820312 244.097656 107.703125 C 241.871094 105.222656 241.871094 105.222656 234.886719 105.214844 C 234.886719 112.382812 234.886719 119.546875 234.886719 126.929688 C 231.589844 126.929688 228.289062 126.929688 224.894531 126.929688 C 224.894531 109.292969 224.894531 91.65625 224.894531 73.484375 Z M 224.894531 73.484375 "/>
<path style=" stroke:none;fill-rule:nonzero;fill:rgb(2.745098%,2.745098%,2.745098%);fill-opacity:1;" d="M 207.402344 75.988281 C 211.246094 78.683594 214.582031 81.667969 216.5625 86.011719 C 216.5625 86.5625 216.5625 87.113281 216.5625 87.679688 C 215.351562 88.242188 214.136719 88.796875 212.917969 89.351562 C 212.242188 89.660156 211.566406 89.96875 210.871094 90.289062 C 209.066406 91.019531 209.066406 91.019531 207.402344 91.019531 C 206.972656 90.125 206.542969 89.230469 206.097656 88.308594 C 204.167969 84.996094 201.921875 82.980469 198.238281 81.835938 C 193.789062 81.207031 190.28125 81.242188 186.214844 83.246094 C 182.089844 86.972656 179.292969 90.269531 178.800781 95.886719 C 178.632812 104.167969 178.878906 109.507812 184.546875 116.019531 C 188.226562 119.140625 191.933594 118.863281 196.558594 118.804688 C 200.316406 118.464844 201.964844 117.628906 204.902344 115.238281 C 206.261719 113.335938 207.214844 111.515625 208.234375 109.390625 C 211.199219 109.902344 213.800781 110.710938 216.5625 111.898438 C 216.449219 116.453125 214.570312 118.851562 211.597656 122.058594 C 204.695312 128.273438 196.21875 128.304688 187.410156 127.914062 C 181.425781 127.375 176.394531 123.753906 172.417969 119.414062 C 166.660156 111.582031 166.539062 101.996094 167.421875 92.691406 C 169.046875 85.507812 173.046875 80.144531 179.136719 76.074219 C 188.066406 70.972656 198.367188 71.238281 207.402344 75.988281 Z M 207.402344 75.988281 "/>
<path style=" stroke:none;fill-rule:nonzero;fill:rgb(5.098039%,5.098039%,5.098039%);fill-opacity:1;" d="M 215.863281 35.683594 C 219.097656 37.367188 221.136719 39.175781 222.394531 42.585938 C 222.949219 46.757812 222.875 49.933594 221.039062 53.757812 C 218.25 56.847656 216.136719 58.984375 211.882812 59.609375 C 206.921875 59.8125 203.726562 59.394531 199.90625 55.949219 C 196.976562 52.609375 196.269531 49.601562 196.339844 45.140625 C 196.863281 41.257812 199.285156 38.988281 202.039062 36.429688 C 206.496094 34.316406 211.152344 34.085938 215.863281 35.683594 Z M 215.863281 35.683594 "/>
<path style=" stroke:none;fill-rule:nonzero;fill:rgb(5.098039%,5.098039%,5.098039%);fill-opacity:1;" d="M 269.871094 35.070312 C 273.257812 36.738281 275.414062 38.539062 277.367188 41.753906 C 278.105469 46.578125 278.382812 51.109375 275.597656 55.21875 C 274.808594 55.734375 274.015625 56.25 273.203125 56.785156 C 272.09375 57.53125 272.09375 57.53125 270.964844 58.296875 C 266.132812 60.035156 261.777344 60.136719 257.066406 58.035156 C 253.652344 54.777344 251.945312 51.394531 251.078125 46.761719 C 251.898438 42.371094 254.042969 38.816406 257.632812 36.148438 C 261.582031 34.253906 265.59375 34.542969 269.871094 35.070312 Z M 269.871094 35.070312 "/>
<path style=" stroke:none;fill-rule:nonzero;fill:rgb(3.137255%,3.137255%,3.137255%);fill-opacity:1;" d="M 171.585938 26.722656 C 179.28125 26.722656 186.976562 26.722656 194.90625 26.722656 C 194.109375 30.71875 193.347656 32.335938 191.136719 35.601562 C 190.542969 36.480469 189.953125 37.359375 189.34375 38.265625 C 188.71875 39.183594 188.089844 40.101562 187.460938 41.023438 C 186.835938 41.945312 186.214844 42.871094 185.589844 43.796875 C 184.445312 45.492188 183.296875 47.1875 182.144531 48.878906 C 181.117188 50.394531 180.097656 51.917969 179.082031 53.441406 C 184.027344 53.71875 188.976562 53.996094 194.074219 54.277344 C 194.074219 55.65625 194.074219 57.035156 194.074219 58.453125 C 186.101562 58.453125 178.132812 58.453125 169.917969 58.453125 C 170.675781 54.65625 171.003906 53.570312 173.144531 50.675781 C 176.003906 46.734375 178.78125 42.746094 181.527344 38.726562 C 182.332031 37.550781 183.140625 36.371094 183.945312 35.195312 C 184.539062 34.328125 185.132812 33.460938 185.746094 32.566406 C 181.070312 32.292969 176.398438 32.015625 171.585938 31.730469 C 171.585938 30.078125 171.585938 28.425781 171.585938 26.722656 Z M 171.585938 26.722656 "/>
<path style=" stroke:none;fill-rule:nonzero;fill:rgb(4.705882%,4.705882%,4.705882%);fill-opacity:1;" d="M 226.558594 24.214844 C 228.484375 24.214844 230.40625 24.214844 232.390625 24.214844 C 232.664062 28.351562 232.9375 32.484375 233.222656 36.742188 C 234.046875 36.191406 234.871094 35.640625 235.722656 35.070312 C 237.640625 34.761719 237.640625 34.761719 239.78125 34.707031 C 240.484375 34.671875 241.1875 34.640625 241.910156 34.605469 C 245.242188 35.332031 246.285156 36.421875 248.214844 39.246094 C 248.71875 42.550781 248.605469 45.777344 248.476562 49.113281 C 248.457031 50.007812 248.4375 50.90625 248.417969 51.832031 C 248.371094 54.039062 248.300781 56.246094 248.214844 58.453125 C 246.566406 58.453125 244.917969 58.453125 243.21875 58.453125 C 242.941406 52.667969 242.667969 46.878906 242.382812 40.917969 C 239.910156 40.640625 237.4375 40.367188 234.886719 40.082031 C 232.820312 42.152344 232.980469 42.890625 232.878906 45.75 C 232.84375 46.539062 232.8125 47.324219 232.78125 48.132812 C 232.753906 48.957031 232.726562 49.777344 232.703125 50.625 C 232.667969 51.453125 232.636719 52.28125 232.605469 53.136719 C 232.523438 55.1875 232.453125 57.238281 232.390625 59.289062 C 230.464844 59.289062 228.539062 59.289062 226.558594 59.289062 C 226.558594 47.714844 226.558594 36.140625 226.558594 24.214844 Z M 226.558594 24.214844 "/>
<path style=" stroke:none;fill-rule:nonzero;fill:rgb(96.862745%,96.862745%,96.862745%);fill-opacity:1;" d="M 234.886719 81.835938 C 237.136719 81.785156 239.390625 81.730469 241.707031 81.679688 C 242.410156 81.65625 243.109375 81.632812 243.832031 81.609375 C 247.648438 81.566406 250.117188 81.851562 253.210938 84.339844 C 254.660156 87.242188 254.542969 90.359375 254.046875 93.527344 C 251.9375 96.265625 250.648438 97.445312 247.382812 98.535156 C 245.238281 98.59375 243.121094 98.613281 240.980469 98.589844 C 237.964844 98.5625 237.964844 98.5625 234.886719 98.535156 C 234.886719 93.023438 234.886719 87.511719 234.886719 81.835938 Z M 234.886719 81.835938 "/>
<path style=" stroke:none;fill-rule:nonzero;fill:rgb(95.294118%,95.294118%,95.294118%);fill-opacity:1;" d="M 264.40625 38.726562 C 267.371094 39.246094 267.371094 39.246094 269.820312 40.867188 C 271.824219 43.851562 272.152344 45.597656 271.941406 49.132812 C 271.265625 52.15625 269.882812 53.417969 267.371094 55.113281 C 264.875 55.636719 264.875 55.636719 262.375 55.113281 C 259.867188 53.417969 258.464844 52.171875 257.835938 49.132812 C 257.675781 45.855469 258.011719 43.816406 259.511719 40.867188 C 261.542969 39.246094 261.542969 39.246094 264.40625 38.726562 Z M 264.40625 38.726562 "/>
<path style=" stroke:none;fill-rule:nonzero;fill:rgb(96.470588%,96.470588%,96.470588%);fill-opacity:1;" d="M 209.484375 38.828125 C 212.457031 39.253906 213.675781 39.613281 215.730469 41.753906 C 216.730469 44.761719 216.835938 46.9375 216.5625 50.101562 C 215.261719 52.503906 215.261719 52.503906 213.230469 54.277344 C 210.101562 55.175781 208.347656 55.613281 205.421875 54.070312 C 202.996094 51.449219 202.945312 48.570312 203.007812 45.097656 C 203.570312 40.957031 205.515625 39.398438 209.484375 38.828125 Z M 209.484375 38.828125 "/>
</g>
</svg>
